<svg width="314" height="298" viewBox="0 0 314 298" fill="none" xmlns="http://www.w3.org/2000/svg">
<path d="M68.1762 10.7134H52.5931C45.8837 10.7134 41.3386 13.2024 38.9578 18.1803C36.7935 23.1583 35.7114 31.8156 35.7114 44.1522V95.122C35.7114 105.944 34.7374 114.709 32.7895 121.419C30.8416 127.912 28.5691 132.998 25.9719 136.677C23.3747 140.356 20.7775 142.954 18.1803 144.469C15.7996 145.984 14.0681 147.066 12.9859 147.715C14.0681 148.797 15.7996 150.204 18.1803 151.936C20.7775 153.667 23.3747 156.481 25.9719 160.376C28.5691 164.056 30.8416 169.25 32.7895 175.96C34.7374 182.453 35.7114 191.11 35.7114 201.931V252.901C35.7114 265.238 36.7935 273.895 38.9578 278.873C41.3386 283.851 45.8837 286.34 52.5931 286.34H68.1762V297.054H51.9438C42.8536 297.054 35.8196 294.348 30.8416 288.937C25.8637 283.526 23.3747 273.462 23.3747 258.745V207.45C23.3747 200.958 23.0501 194.573 22.4008 188.296C21.7515 182.02 20.5611 176.501 18.8296 171.739C17.0982 166.761 14.7174 162.757 11.6874 159.727C8.6573 156.697 4.76151 155.074 0 154.857V142.521C4.76151 142.304 8.6573 140.681 11.6874 137.651C14.7174 134.621 17.0982 130.725 18.8296 125.964C20.5611 120.986 21.7515 115.358 22.4008 109.082C23.0501 102.805 23.3747 96.4206 23.3747 89.9277V38.3085C23.3747 23.5911 25.8637 13.527 30.8416 8.11621C35.8196 2.7054 42.8536 0 51.9438 0H68.1762V10.7134Z" fill="white"/>
<path d="M188.413 158.862H125.603L92.6083 211.734C91.217 213.721 91.8133 215.709 92.4096 216.902C92.8071 217.895 94.1984 219.485 96.7824 219.485H217.234C219.619 219.485 221.01 218.094 221.606 216.902C222.203 215.908 222.799 213.92 221.408 211.734L188.413 158.862Z" fill="white"/>
<path d="M241.483 199.41L190.997 118.314C189.605 115.929 188.81 113.146 188.81 110.364V67.6293H194.177C197.953 67.6293 200.935 64.6478 200.935 60.8713C200.935 57.0947 197.953 54.1133 194.177 54.1133H120.038C116.261 54.1133 113.28 57.0947 113.28 60.8713C113.28 64.6478 116.261 67.6293 120.038 67.6293H125.404V110.364C125.404 113.146 124.609 115.929 123.218 118.314L72.533 199.41C66.9676 208.355 66.7689 219.088 71.738 228.231C76.9059 237.374 86.049 242.94 96.5835 242.94H217.035C227.569 242.94 236.911 237.374 241.88 228.231C247.247 219.088 246.849 208.355 241.483 199.41ZM230.352 221.87C227.569 226.641 222.799 229.622 217.234 229.622H96.7823C91.2169 229.622 86.2478 226.641 83.6638 221.87C80.8811 217.1 81.0799 211.336 84.0614 206.566L134.548 125.47C137.33 120.898 138.92 115.73 138.92 110.364V67.6293H175.493V110.364C175.493 115.73 176.884 120.898 179.866 125.47L230.352 206.566C232.936 211.137 233.135 216.901 230.352 221.87Z" fill="white"/>
<path d="M245.712 286.34L261.295 286.34C268.005 286.34 272.55 283.851 274.93 278.873C277.095 273.895 278.177 265.238 278.177 252.902L278.177 201.932C278.177 191.11 279.151 182.345 281.099 175.635C283.047 169.142 285.319 164.056 287.916 160.377C290.513 156.697 293.111 154.1 295.708 152.585C298.089 151.07 299.82 149.988 300.902 149.339C299.82 148.256 298.089 146.85 295.708 145.118C293.111 143.387 290.513 140.573 287.916 136.677C285.319 132.998 283.047 127.804 281.099 121.094C279.151 114.601 278.177 105.944 278.177 95.1222L278.177 44.1524C278.177 31.8158 277.095 23.1585 274.93 18.1805C272.55 13.2026 268.005 10.7136 261.295 10.7136L245.712 10.7136L245.712 0.000184425L261.944 0.000185844C271.035 0.000186639 278.069 2.70561 283.047 8.11642C288.025 13.5272 290.514 23.5913 290.514 38.3088L290.514 89.6032C290.513 96.0962 290.838 102.481 291.487 108.757C292.137 115.034 293.327 120.553 295.059 125.315C296.79 130.293 299.171 134.297 302.201 137.327C305.231 140.357 309.127 141.98 313.888 142.196L313.888 154.533C309.127 154.749 305.231 156.373 302.201 159.403C299.171 162.433 296.79 166.329 295.059 171.09C293.327 176.068 292.137 181.695 291.487 187.972C290.838 194.248 290.513 200.633 290.513 207.126L290.513 258.745C290.513 273.463 288.025 283.527 283.047 288.938C278.069 294.348 271.035 297.054 261.944 297.054L245.712 297.054L245.712 286.34Z" fill="white"/>
</svg>
